<svg width="518" height="249" viewBox="0 0 518 249" fill="none" xmlns="http://www.w3.org/2000/svg">
<path d="M79.689 87.9848C85.3256 71.2859 94.9784 55.9934 107.919 43.2621C120.859 30.5309 136.748 20.6937 154.386 14.4935C172.025 8.29327 190.951 5.89211 209.736 7.47132C228.521 9.05053 246.674 14.5688 262.823 23.6095C278.973 32.6502 292.697 44.9769 302.96 59.6587C313.222 74.3405 319.755 90.9937 322.064 108.361C324.373 125.728 322.398 143.354 316.289 159.909C310.18 176.465 300.095 191.516 286.798 203.926L239.324 160.147C245.472 154.409 250.135 147.45 252.959 139.796C255.784 132.142 256.697 123.992 255.629 115.963C254.562 107.933 251.541 100.234 246.797 93.4455C242.052 86.6574 235.706 80.9582 228.24 76.7783C220.773 72.5984 212.38 70.047 203.695 69.3169C195.01 68.5867 186.259 69.6969 178.104 72.5636C169.949 75.4302 162.603 79.9784 156.62 85.8646C150.637 91.7509 146.174 98.8213 143.568 106.542L79.689 87.9848Z" fill="#05082B"/>
<path d="M424.535 204.171C403.93 223.287 376.749 235.091 347.728 237.529C318.706 239.967 289.683 232.884 265.711 217.513C241.74 202.142 224.34 179.457 216.541 153.41C208.743 127.362 211.04 99.602 223.033 74.9641L302.502 108.257C298.909 115.639 298.22 123.957 300.557 131.761C302.893 139.566 308.107 146.363 315.29 150.969C322.472 155.574 331.169 157.697 339.864 156.966C348.56 156.236 356.704 152.699 362.878 146.971L424.535 204.171Z" fill="#05082B"/>
<path d="M267.5 73L284.803 122.2L315.564 163L267.5 154.6L219.436 163L250.197 122.2L267.5 73Z" fill="white"/>
</svg>
